# xmcd
#
# Track frame offsets: 
#        150
#        14463
#        29124
#        46393
#        62633
#        75782
#        92734
#        110731
#        130712
#        150031
#        167698
#
# Disc length: 2400 seconds
#
# Revision: 0
# Processed by: cddbd v1.5.2PL0 Copyright (c) Steve Scherf et al.
# Submitted via: ExactAudioCopy v0.95b4
#
DISCID=7c095e0b
DTITLE=The Gringo Kings - Thank God For The Cowboy
DYEAR=2007
DGENRE=Country
TTITLE0=Gringo Kings
TTITLE1=Just A Bunch Of Boys
TTITLE2=Thank God For The Cowboy
TTITLE3=Beautiful Life
TTITLE4=Cheyenne
TTITLE5=The Famous Cure
TTITLE6=Guts Or Glory
TTITLE7=Ever Since You Said Goodbye
TTITLE8=Texas Music
TTITLE9=We Were Friends
TTITLE10=Ridin' In Heaven
EXTD=
EXTT0=
EXTT1=
EXTT2=
EXTT3=
EXTT4=
EXTT5=
EXTT6=
EXTT7=
EXTT8=
EXTT9=
EXTT10=
PLAYORDER=
